<svg width="13" height="17" viewBox="0 0 13 17" fill="none" xmlns="http://www.w3.org/2000/svg">
<path d="M0 11.892H2.55399V17H0V11.892ZM12.77 0.319249C12.7167 1.56964 12.3975 2.66041 11.8122 3.59155C11.2269 4.49609 10.4155 5.10798 9.37793 5.42723V17H7.66197V11.892H5.98592V17H4.26995V6.86385C4.03052 6.94366 3.85759 7.03678 3.75117 7.14319C2.95305 7.78169 2.55399 8.65962 2.55399 9.777V10.216H0.877934V9.777C0.877934 8.10094 1.47653 6.74413 2.67371 5.70657C3.87089 4.72222 5.2543 4.23005 6.82394 4.23005C8.02113 4.23005 9.00548 3.9374 9.777 3.35211C10.6549 2.6338 11.0939 1.64945 11.0939 0.399061V0H12.77V0.319249ZM8.02113 2.87324C7.67527 3.21909 7.27621 3.39202 6.82394 3.39202C6.37167 3.39202 5.97261 3.21909 5.62676 2.87324C5.28091 2.52739 5.10798 2.12833 5.10798 1.67606C5.10798 1.22379 5.28091 0.838028 5.62676 0.518779C5.97261 0.172926 6.37167 0 6.82394 0C7.27621 0 7.67527 0.172926 8.02113 0.518779C8.36698 0.838028 8.53991 1.22379 8.53991 1.67606C8.53991 2.12833 8.36698 2.52739 8.02113 2.87324Z" fill="black"/>
</svg>
