<svg width="17" height="17" viewBox="0 0 17 17" fill="none" xmlns="http://www.w3.org/2000/svg">
<path fill-rule="evenodd" clip-rule="evenodd" d="M16.9999 15.8157L13.4156 12.2323C14.4845 10.899 15.0658 9.24055 15.0634 7.53169C15.0634 3.3742 11.6892 0 7.53169 0C3.3742 0 0 3.3742 0 7.53169C0 11.6892 3.3742 15.0634 7.53169 15.0634C9.24055 15.0658 10.899 14.4845 12.2323 13.4156L15.8157 16.9999L16.9999 15.8157ZM13.3897 7.53169C13.3921 9.05513 12.7989 10.5192 11.7369 11.6114L11.6114 11.7369C10.5192 12.7989 9.05513 13.3921 7.53169 13.3897C4.29474 13.3897 1.67371 10.7678 1.67371 7.53169C1.67371 4.29474 4.29474 1.67371 7.53169 1.67371C10.7678 1.67371 13.3897 4.29474 13.3897 7.53169Z" fill="#0086CA"/>
</svg>
