<svg width="20" height="20" viewBox="0 0 20 20" fill="none" xmlns="http://www.w3.org/2000/svg">
<path fill-rule="evenodd" clip-rule="evenodd" d="M0 9.99989C0 4.48617 4.48617 0 9.99989 0C15.5136 0 19.9998 4.48617 19.9998 9.99989C19.9998 15.5136 15.5136 19.9998 9.99989 19.9998C4.48617 19.9998 0 15.5136 0 9.99989ZM9.19789 13.7091L15.5888 7.36834C15.9898 6.96734 15.9898 6.34078 15.5888 5.93978C15.1878 5.53878 14.5612 5.53878 14.1602 5.93978L8.44602 11.654L5.76435 9.19789C5.36335 8.82196 4.73679 8.84702 4.36085 9.24802C4.00998 9.64901 4.03504 10.2756 4.43604 10.6515L7.81946 13.7342C8.22046 14.1101 8.82196 14.0851 9.19789 13.7091Z" fill="#0086CA"/>
</svg>
