<svg width="17" height="13" viewBox="0 0 17 13" fill="none" xmlns="http://www.w3.org/2000/svg">
<path d="M11.892 12.77V10.216H17V12.77H11.892ZM0.319249 0C1.56964 0.0532081 2.66041 0.372457 3.59155 0.957746C4.49609 1.54304 5.10798 2.35446 5.42723 3.39202L17 3.39202V5.10798L11.892 5.10798V6.78404L17 6.78404V8.5H6.86385C6.94366 8.73944 7.03678 8.91236 7.14319 9.01878C7.78169 9.8169 8.65962 10.216 9.777 10.216H10.216V11.892H9.777C8.10094 11.892 6.74413 11.2934 5.70657 10.0962C4.72222 8.89906 4.23005 7.51565 4.23005 5.94601C4.23005 4.74883 3.9374 3.76448 3.35211 2.99296C2.6338 2.11502 1.64945 1.67606 0.399061 1.67606H0V0H0.319249ZM2.87324 4.74883C3.21909 5.09468 3.39202 5.49374 3.39202 5.94601C3.39202 6.39828 3.21909 6.79734 2.87324 7.14319C2.52739 7.48905 2.12833 7.66197 1.67606 7.66197C1.22379 7.66197 0.838028 7.48905 0.518779 7.14319C0.172926 6.79734 0 6.39828 0 5.94601C0 5.49374 0.172926 5.09468 0.518779 4.74883C0.838028 4.40297 1.22379 4.23005 1.67606 4.23005C2.12833 4.23005 2.52739 4.40297 2.87324 4.74883Z" fill="white"/>
</svg>
